<svg width="4170" height="3685" viewBox="0 0 4170 3685" fill="none" xmlns="http://www.w3.org/2000/svg">
<ellipse opacity="0.82" cx="738" cy="934" rx="738" ry="934" fill="black"/>
<ellipse cx="925" cy="732.5" rx="187" ry="201.5" fill="white"/>
<ellipse opacity="0.82" cx="3274" cy="934" rx="738" ry="934" fill="black"/>
<path d="M546.948 2680.64C517.456 2651.95 470.289 2652.6 441.599 2682.09C412.909 2711.58 413.559 2758.75 443.052 2787.44L495 2734.04L546.948 2680.64ZM4012.18 2152L3215.35 2476.19L3894.52 3004.17L4012.18 2152ZM495 2734.04L443.052 2787.44C1111.45 3437.66 1760.49 3584.45 2324.42 3482.73C2882.99 3381.97 3345.9 3039.63 3653.27 2734.08L3600.75 2681.25L3548.22 2628.41C3251.44 2923.43 2814.65 3242.89 2297.97 3336.09C1786.66 3428.33 1184.91 3301.24 546.948 2680.64L495 2734.04Z" fill="black"/>
<ellipse cx="3461" cy="642.5" rx="187" ry="201.5" fill="white"/>
</svg>
